<svg width="159" height="22" viewBox="0 0 159 22" fill="none" xmlns="http://www.w3.org/2000/svg">
<path d="M15.64 17.36V21.712H0.92V1.456H6.04V17.36H15.64ZM22.7208 0.335999C22.7848 1.104 22.8168 1.744 22.8168 2.256C22.8168 2.55467 22.8061 2.864 22.7848 3.184C22.7848 3.48267 22.7634 3.824 22.7208 4.208C22.2728 4.29333 21.8354 4.35733 21.4088 4.4C20.9821 4.44267 20.5554 4.464 20.1288 4.464C19.7234 4.464 19.3074 4.44267 18.8808 4.4C18.4754 4.35733 18.0594 4.29333 17.6328 4.208C17.5901 3.84533 17.5581 3.51467 17.5368 3.216C17.5154 2.896 17.5048 2.58666 17.5048 2.288C17.5048 2.01067 17.5154 1.712 17.5368 1.392C17.5581 1.072 17.5901 0.719999 17.6328 0.335999C18.0594 0.229332 18.4861 0.165332 18.9128 0.143999C19.3608 0.101332 19.7981 0.079998 20.2248 0.079998C20.6301 0.079998 21.0354 0.101332 21.4408 0.143999C21.8674 0.165332 22.2941 0.229332 22.7208 0.335999ZM22.7208 21.712H17.6008V6.128H22.7208V21.712ZM40.9518 6.224L35.8638 21.712H29.4638L24.6638 6.192V6.128H30.4238C30.8718 7.792 31.2878 9.59467 31.6718 11.536C32.0771 13.4773 32.4398 15.344 32.7598 17.136H32.8878C33.2078 15.344 33.5598 13.4773 33.9438 11.536C34.3491 9.59467 34.7758 7.792 35.2238 6.128H40.9518V6.224ZM56.2893 21.2C55.6919 21.4133 54.8599 21.6053 53.7933 21.776C52.7479 21.9253 51.4999 22 50.0493 22C48.2146 22 46.6466 21.7653 45.3453 21.296C44.0653 20.8053 43.0946 19.984 42.4333 18.832C41.7719 17.6587 41.4413 16.0373 41.4413 13.968C41.4413 11.152 42.0813 9.11467 43.3613 7.856C44.6626 6.59733 46.6679 5.968 49.3773 5.968C51.3186 5.968 52.8439 6.24533 53.9533 6.8C55.0839 7.35467 55.8839 8.144 56.3533 9.168C56.8439 10.1707 57.0893 11.3653 57.0893 12.752C57.0893 13.1573 57.0679 13.5947 57.0253 14.064C57.0039 14.5333 56.9506 14.992 56.8653 15.44L56.7373 15.568H46.2093C46.3586 16.5067 46.7959 17.1253 47.5213 17.424C48.2679 17.7227 49.4733 17.872 51.1373 17.872C52.2466 17.872 53.1639 17.8507 53.8893 17.808C54.6359 17.744 55.3933 17.6587 56.1613 17.552L56.2893 17.648V21.2ZM52.6413 12.208C52.6413 11.696 52.5559 11.2587 52.3853 10.896C52.2359 10.512 51.9266 10.224 51.4573 10.032C50.9879 9.81867 50.2946 9.712 49.3773 9.712C48.0333 9.712 47.1479 9.94667 46.7213 10.416C46.3159 10.864 46.1133 11.4613 46.1133 12.208H52.6413ZM62.4993 16.496C63.4379 16.816 64.4619 17.072 65.5713 17.264C66.7019 17.4347 67.8219 17.52 68.9313 17.52C70.4459 17.52 71.5659 17.456 72.2913 17.328C73.0379 17.1787 73.5286 16.9547 73.7633 16.656C73.9979 16.3573 74.1153 15.9733 74.1153 15.504C74.1153 15.0987 74.0299 14.7787 73.8593 14.544C73.6886 14.3093 73.3579 14.128 72.8673 14C72.3766 13.8507 71.6513 13.7333 70.6913 13.648L68.5793 13.456C67.0006 13.3067 65.7526 12.976 64.8353 12.464C63.9393 11.952 63.2993 11.2693 62.9153 10.416C62.5526 9.54133 62.3713 8.496 62.3713 7.28C62.3713 5.82933 62.6593 4.656 63.2353 3.76C63.8326 2.864 64.7926 2.21333 66.1153 1.808C67.4379 1.38133 69.1979 1.168 71.3953 1.168C74.2539 1.168 76.6113 1.54133 78.4673 2.288L78.3713 6.64L78.2753 6.768C76.1633 6.02133 73.9553 5.648 71.6513 5.648C70.5419 5.648 69.6886 5.712 69.0913 5.84C68.4939 5.94667 68.0779 6.128 67.8433 6.384C67.6086 6.64 67.4913 7.00267 67.4913 7.472C67.4913 7.94133 67.5659 8.29333 67.7153 8.528C67.8859 8.76267 68.2166 8.944 68.7073 9.072C69.1979 9.17867 69.9126 9.28533 70.8513 9.392L72.8673 9.616C74.5739 9.808 75.8859 10.1493 76.8033 10.64C77.7206 11.1307 78.3499 11.792 78.6913 12.624C79.0539 13.4347 79.2353 14.4267 79.2353 15.6C79.2353 17.0293 78.9259 18.224 78.3073 19.184C77.7099 20.1227 76.7286 20.8267 75.3633 21.296C73.9979 21.7653 72.1739 22 69.8913 22C68.3979 22 67.0539 21.9253 65.8593 21.776C64.6646 21.6053 63.5019 21.3813 62.3713 21.104V16.592L62.4993 16.496ZM95.5367 21.2C94.9394 21.4133 94.1074 21.6053 93.0407 21.776C91.9954 21.9253 90.7474 22 89.2967 22C87.4621 22 85.8941 21.7653 84.5927 21.296C83.3127 20.8053 82.3421 19.984 81.6807 18.832C81.0194 17.6587 80.6887 16.0373 80.6887 13.968C80.6887 11.152 81.3287 9.11467 82.6087 7.856C83.9101 6.59733 85.9154 5.968 88.6247 5.968C90.5661 5.968 92.0914 6.24533 93.2007 6.8C94.3314 7.35467 95.1314 8.144 95.6007 9.168C96.0914 10.1707 96.3367 11.3653 96.3367 12.752C96.3367 13.1573 96.3154 13.5947 96.2727 14.064C96.2514 14.5333 96.1981 14.992 96.1127 15.44L95.9847 15.568H85.4567C85.6061 16.5067 86.0434 17.1253 86.7687 17.424C87.5154 17.7227 88.7207 17.872 90.3847 17.872C91.4941 17.872 92.4114 17.8507 93.1367 17.808C93.8834 17.744 94.6407 17.6587 95.4087 17.552L95.5367 17.648V21.2ZM91.8887 12.208C91.8887 11.696 91.8034 11.2587 91.6327 10.896C91.4834 10.512 91.1741 10.224 90.7047 10.032C90.2354 9.81867 89.5421 9.712 88.6247 9.712C87.2807 9.712 86.3954 9.94667 85.9687 10.416C85.5634 10.864 85.3607 11.4613 85.3607 12.208H91.8887ZM104.339 5.968C106.387 5.968 108.04 6.18133 109.299 6.608C110.557 7.03467 111.475 7.824 112.051 8.976C112.648 10.1067 112.947 11.7493 112.947 13.904V21.712H108.307L108.147 20.24H108.051C107.645 20.7733 107.016 21.2 106.163 21.52C105.309 21.84 104.2 22 102.835 22C99.1441 22 97.2987 20.272 97.2987 16.816C97.2987 15.344 97.7787 14.192 98.7387 13.36C99.7201 12.5067 101.256 12.08 103.347 12.08H108.083C107.933 11.184 107.549 10.5867 106.931 10.288C106.312 9.968 105.256 9.808 103.763 9.808C102.824 9.808 101.896 9.88267 100.979 10.032C100.083 10.16 99.2934 10.3093 98.6107 10.48L98.5147 10.416L98.5467 6.704C98.9734 6.576 99.5174 6.45867 100.179 6.352C100.84 6.224 101.533 6.128 102.259 6.064C103.005 6 103.699 5.968 104.339 5.968ZM104.147 18.224C105.469 18.224 106.461 18.064 107.123 17.744C107.784 17.4027 108.125 16.8693 108.147 16.144V15.344H104.531C103.592 15.344 102.931 15.4827 102.547 15.76C102.184 16.016 102.003 16.368 102.003 16.816C102.003 17.3493 102.195 17.7227 102.579 17.936C102.963 18.128 103.485 18.224 104.147 18.224ZM120.774 21.712H115.654V6.128H119.814L120.23 9.328H120.326C120.518 8.13333 120.976 7.28 121.702 6.768C122.427 6.23467 123.504 5.968 124.934 5.968C125.51 5.968 126.032 6 126.502 6.064C126.971 6.10667 127.366 6.14933 127.686 6.192V11.184L127.622 11.248C127.28 11.1627 126.886 11.088 126.438 11.024C126.011 10.96 125.52 10.928 124.966 10.928C124.176 10.928 123.462 11.056 122.822 11.312C122.203 11.568 121.712 12.0693 121.35 12.816C121.008 13.5413 120.838 14.6293 120.838 16.08L120.774 21.712ZM141.423 17.2V21.36C140.89 21.5733 140.1 21.7333 139.055 21.84C138.01 21.9467 136.9 22 135.727 22C134.042 22 132.634 21.7653 131.503 21.296C130.394 20.8267 129.562 20.016 129.007 18.864C128.474 17.712 128.196 16.112 128.175 14.064C128.175 11.952 128.463 10.3093 129.039 9.136C129.636 7.96267 130.5 7.14133 131.631 6.672C132.762 6.20267 134.116 5.968 135.695 5.968C136.634 5.968 137.626 6.032 138.671 6.16C139.716 6.288 140.57 6.45867 141.231 6.672L141.263 10.96L141.167 11.024C140.527 10.896 139.844 10.8 139.119 10.736C138.394 10.672 137.679 10.64 136.975 10.64C135.546 10.64 134.554 10.9067 133.999 11.44C133.444 11.9733 133.167 12.8693 133.167 14.128C133.167 15.088 133.284 15.8027 133.519 16.272C133.754 16.7413 134.148 17.0507 134.703 17.2C135.258 17.3493 136.015 17.424 136.975 17.424C137.722 17.424 138.436 17.392 139.119 17.328C139.802 17.264 140.527 17.1893 141.295 17.104L141.423 17.2ZM148.135 21.712H143.015V0.207998H148.135V8.976H148.231C148.53 8.016 149.074 7.28 149.863 6.768C150.674 6.23467 151.73 5.968 153.031 5.968C154.268 5.968 155.282 6.17067 156.071 6.576C156.882 6.98133 157.479 7.696 157.863 8.72C158.268 9.72267 158.471 11.1413 158.471 12.976V21.712H153.351L153.319 13.968C153.319 12.7733 153.138 11.92 152.775 11.408C152.412 10.896 151.73 10.64 150.727 10.64C149.831 10.64 149.18 10.8747 148.775 11.344C148.37 11.8133 148.156 12.6027 148.135 13.712V21.712Z" fill="black"/>
</svg>
